<svg xmlns="http://www.w3.org/2000/svg" xmlns:xlink="http://www.w3.org/1999/xlink" version="1.1" width="1080" height="1080" viewBox="0 0 1080 1080" xml:space="preserve">
<desc>Created with Fabric.js 4.2.0</desc>
<defs>
</defs>
<g transform="matrix(1 0 0 1 540 540)" id="b5c8d82f-e914-4c4d-b548-c836d5367283"  >
<rect style="stroke: none; stroke-width: 1; stroke-dasharray: none; stroke-linecap: butt; stroke-dashoffset: 0; stroke-linejoin: miter; stroke-miterlimit: 4; fill: rgb(255,255,255); fill-rule: nonzero; opacity: 1;" vector-effect="non-scaling-stroke"  x="-540" y="-540" rx="0" ry="0" width="1080" height="1080" />
</g>
<g transform="matrix(1 0 0 1 540 540)" id="599bf71d-f6d8-42ba-9ff5-291d270e948c"  >
</g>
<g transform="matrix(1.06 0 0 1.06 540 540)" id="98cd483a-ab40-4c49-8f13-4746de042f8b"  >
<path style="stroke: rgb(0,0,0); stroke-width: 0; stroke-dasharray: none; stroke-linecap: butt; stroke-dashoffset: 0; stroke-linejoin: miter; stroke-miterlimit: 4; fill: rgb(255,255,255); fill-rule: nonzero; opacity: 1;" vector-effect="non-scaling-stroke"  transform=" translate(-311.88, -320)" d="M 126 558 C 103 525 103 115 126 82 C 134 70 147 60 153 60 C 160 61 244 111 340 173 C 511 283 515 287 515 320 C 515 353 511 357 340 467 C 244 529 160 579 153 580 C 147 580 134 570 126 558 z M 321 448 C 497 336 508 327 491 307 C 476 288 165 90 151 90 C 143 90 140 155 140 320 C 140 485 143 550 151 550 C 158 550 234 504 321 448 z" stroke-linecap="round" />
</g>
</svg>