
<svg version="1.0" xmlns="http://www.w3.org/2000/svg"
 width="64.000000pt" height="64.000000pt" viewBox="0 0 64.000000 64.000000"
 preserveAspectRatio="xMidYMid meet">

<g transform="translate(0.000000,64.000000) scale(0.100000,-0.100000)"
fill="#000000" stroke="none">
<path d="M126 558 c-23 -33 -23 -443 0 -476 8 -12 21 -22 27 -22 7 1 91 51
187 113 171 110 175 114 175 147 0 33 -4 37 -175 147 -96 62 -180 112 -187
113 -6 0 -19 -10 -27 -22z m195 -110 c176 -112 187 -121 170 -141 -15 -19
-326 -217 -340 -217 -8 0 -11 65 -11 230 0 165 3 230 11 230 7 0 83 -46 170
-102z"/>
</g>
</svg>
