
<svg version="1.0" xmlns="http://www.w3.org/2000/svg"
 width="512.000000pt" height="512.000000pt" viewBox="0 0 512.000000 512.000000"
 preserveAspectRatio="xMidYMid meet">

<g transform="translate(0.000000,512.000000) scale(0.100000,-0.100000)"
fill="#000000" stroke="none">
<path d="M3224 5106 c-18 -8 -434 -336 -926 -730 l-894 -715 -465 -3 c-458 -3
-465 -3 -521 -26 -109 -44 -198 -147 -224 -261 -18 -75 -20 -1531 -3 -1613 30
-140 139 -252 278 -284 42 -10 165 -14 495 -14 l439 0 895 -716 c492 -394 910
-722 928 -730 87 -36 200 12 233 99 15 40 15 4854 0 4894 -33 87 -149 136
-235 99z"/>
<path d="M4255 3905 c-5 -2 -22 -6 -37 -9 -37 -8 -98 -63 -114 -103 -19 -44
-18 -107 2 -146 9 -18 42 -59 73 -92 206 -222 332 -486 377 -789 20 -132 15
-354 -11 -484 -50 -257 -180 -515 -353 -702 -81 -88 -102 -125 -102 -179 0
-139 143 -226 267 -162 23 11 74 58 118 108 307 350 458 749 458 1213 0 385
-102 721 -314 1030 -78 115 -216 269 -259 291 -37 18 -88 30 -105 24z"/>
</g>
</svg>
